<svg version="1.2" xmlns="http://www.w3.org/2000/svg" viewBox="0 0 639 241" width="639" height="241">
	<title>remessas-portal-monkey</title>
	<style>
		.s0 { fill: #ffffff } 
		.s1 { fill: #21489b } 
	</style>
	<path id="monkeyface" fill-rule="evenodd" class="s0" d="m69.2 111.5c-0.5-2.8-3.9-4.9-5.5-6.5-6-5.7-9.9-11-13.2-18.2-6.9-14.9-3.5-44.3 11.3-55.1 12.4-8.9 33.4-11 48-5.7 8.9 3.2 12.7 9.2 20 9 8.9-0.3 11.2-5.2 22.7-9.5 11.2-4.2 27.3-2.7 37.3 1.8 7.8 3.5 17.3 15.3 19.5 23.3 5.7 20.4-1.1 38.8-9 49-2.3 3-9.5 7.3-10.7 10.4-1 2.7 3.3 7.6 4.4 9.8 3.9 7.5 7.5 16 8 24.5 1.4 26.9-8 41.1-25.6 55.9-18.6 15.6-41.9 14.9-46.4 15.2-23.3 1.5-54.6-11.1-66.4-36.8-6.8-14.8-8.1-28.9-4.9-44.6 0.9-4.4 3.2-9.1 5.1-13.2 0.9-1.8 4.1-4.8 5.4-9.3zm10-33.7c0 8.7 2.8 14 12.5 14 7.8 0 10.1-11.5 10.1-16.5 0-4.9-1.5-15.1-11.8-15.3-9.3-0.2-10.8 9.1-10.8 17.8zm77.8-1.8c0.3 9.6 3 16 11.4 16 9.8 0 10.9-9.2 10.9-17.9 0-8.7-4.5-14.1-11.3-14.1-9.3 0-11.2 7.2-11 16zm-51 36c0 2.8 4.2 5.5 7.6 5.5 3.4 0 8.4-0.8 8.4-4.5 0-3.5-5-7-9-7-2.6 0-7 1.9-7 6zm30 0.4c0 2 1 5.5 6.4 5.5 5.4 0 9.6-2.9 9.6-6.9 0-2.9-3.9-5-8-5-4.1 0-8 4.3-8 6.4zm-54 38.6c-3.2-1.7-6.7-1.8-8.7 0.2-1.9 1.9-3.1 4 0.7 7.8 5.6 5.6 24.2 15 56 15 32.5 0 47.9-9.8 53-13 5.1-3.2 5.1-7.5 3.3-9.3-1.8-1.8-3.7-3.3-9.3 0.3-6.9 4.4-26 10-47 10-17.7 0-28-0.7-48-11zm174.6-86.3c1.7 3.3 3.1 22.2-3.8 30.2-9.6 10.9-25 10.5-24.8 10.1 2.1-4.1 7.6-18.1 8.1-27.1 0.5-10.4-2.5-22 7.2-22 6.8 0 9.5 1.7 13.3 8.8zm-242.6-9.3c6.5 0 8.1 4.4 8 9.6-0.5 29 6.1 34 7 40 0.1 0.6-14.7-0.1-23.9-12.2-5.3-6.9-6.1-20.8-3.1-27.8 3.5-8.1 9-9.6 12-9.6z"/>
	<path id="portalmonkey" class="s0" aria-label="Portal
Monkey"  d="m308 105.4h-14.3v26.6h-12.1v-71.7h26.6q11.6 0 18.4 6.2 6.9 6.3 6.9 16.6 0 10.5-6.7 16.4-6.7 5.9-18.8 5.9zm-14.3-35.1v25.1h14.5q6.4 0 9.8-3.1 3.4-3.2 3.4-9.1 0-5.8-3.5-9.3-3.4-3.5-9.4-3.6zm46.5 35.2v-0.6q0-7.9 3-14.1 3-6.3 8.4-9.7 5.4-3.4 12.5-3.4 10.5 0 16.9 7 6.6 6.9 7.1 18.4l0.1 2.8q0 7.9-3 14.1-2.9 6.2-8.4 9.6-5.4 3.4-12.6 3.4-10.9 0-17.5-7.5-6.5-7.5-6.5-20zm11.6 0.4q0 8.2 3.2 12.9 3.3 4.6 9.2 4.6 5.9 0 9.1-4.7 3.3-4.7 3.3-13.8 0-8.1-3.4-12.8-3.3-4.8-9.1-4.8-5.7 0-9 4.7-3.3 4.6-3.3 13.9zm73.2-27.5v11.2q-2.3-0.3-4.7-0.3-8 0-10.8 6.3v36.4h-11.6v-53.3h11.1l0.3 6q4.2-7 11.6-7 2.5 0 4.1 0.7zm12.6-12.6h11.6v12.9h9.1v8.9h-9.1v29.7q0 3.1 1.2 4.5 1.2 1.3 4.2 1.3 2 0 4-0.5v9.3q-3.9 1.1-7.6 1.1-13.4 0-13.4-15.2v-30.2h-8.5v-8.9h8.5zm72.3 66.3h-11.9q-0.7-1.6-1.3-5-5.5 5.9-13.6 5.9-7.7 0-12.6-4.5-5-4.6-5-11.4 0-8.5 6.1-13 6.2-4.6 17.6-4.6h7.1v-3.5q0-4.1-2.2-6.6-2.3-2.5-6.9-2.5-3.9 0-6.4 2.1-2.6 2-2.6 5.1h-11.6q0-4.4 2.9-8.1 2.8-3.9 7.6-6.1 4.9-2.1 10.8-2.1 9.1 0 14.5 4.7 5.4 4.7 5.5 13.2v24q0 7.2 2 11.5zm-24.6-8.6q3.4 0 6.4-1.7 3.1-1.8 4.6-4.7v-10h-6.2q-6.5 0-9.7 2.3-3.3 2.3-3.3 6.6 0 3.4 2.2 5.5 2.3 2 6 2zm47.1-67v75.6h-11.6v-75.6zm-250.8 90.9h15.7l20 55 20-55h15.6v71.7h-12v-23.6l1.2-31.6-20.5 55.2h-8.7l-20.4-55.2 1.1 31.6v23.6h-12zm82.3 45.2v-0.6q0-7.8 3-14.1 3-6.3 8.4-9.7 5.5-3.3 12.5-3.3 10.5 0 17 6.9 6.5 6.9 7 18.4l0.1 2.8q0 7.9-3 14.1-2.9 6.2-8.4 9.6-5.4 3.4-12.6 3.4-10.9 0-17.5-7.5-6.5-7.5-6.5-20zm11.6 0.4q0 8.2 3.3 12.9 3.3 4.7 9.1 4.7 5.9 0 9.1-4.8 3.3-4.7 3.3-13.8 0-8.1-3.4-12.8-3.3-4.7-9.1-4.7-5.7 0-9 4.6-3.3 4.7-3.3 13.9zm46-27.2h10.9l0.4 6.2q5.7-7.1 15-7.1 16.1 0 16.4 19v35.2h-11.6v-34.5q0-5.1-2.1-7.5-2.1-2.4-6.9-2.4-7.1 0-10.5 6.5v37.9h-11.6zm86.6 53.3l-15.3-22.8-5.2 5.4v17.4h-11.6v-75.6h11.6v43.6l3.7-4.7 14.2-16.6h14l-19.2 22.2 21.2 31.1zm40.7 1q-11 0-17.9-7.1-6.8-7.2-6.8-19.2v-1.4q0-8 3-14.3 3-6.3 8.3-9.8 5.4-3.5 12.1-3.5 10.5 0 16.2 7 5.8 6.9 5.8 19.6v4.9h-33.7q0.5 6.6 4.2 10.4 3.8 3.8 9.5 3.8 7.9 0 13-6.6l6.2 6.2q-3.1 4.7-8.3 7.4-5.2 2.6-11.6 2.6zm-1.4-45.7q-4.7 0-7.7 3.5-2.9 3.4-3.7 9.6h22.1v-0.9q-0.4-6-3.1-9.1-2.8-3.1-7.6-3.1zm37.6-8.6l10.9 36.2 10.5-36.2h12.4l-20.5 61.4q-4.7 13.4-16.1 13.4-2.5 0-5.5-0.8v-9.3l2.2 0.1q4.4 0 6.5-1.6 2.3-1.7 3.6-5.6l1.6-4.5-18.1-53.1z"/>
	<path id="remessas" class="s1" aria-label="REMESSAS"  d="m309.4 51l-9.4-18.1h-8.2v18.1h-10.4v-49.5h18.7q8.9 0 13.7 4 4.8 3.9 4.8 11 0 5.1-2.2 8.4-2.2 3.4-6.7 5.4l10.8 20.2v0.5zm-17.6-41.2v14.8h8.3q3.9 0 6.1-1.9 2.1-2 2.1-5.4 0-3.5-2-5.5-2-2-6.2-2zm64.9 11.8v8h-19.8v13.2h23.3v8.2h-33.7v-49.5h33.6v8.3h-23.2v11.8zm9.5-20.1h13.5l12.9 35.9 12.8-35.9h13.6v49.5h-10.4v-13.5l1.1-23.4-13.6 36.9h-7.1l-13.5-36.8 1 23.3v13.5h-10.3zm92.1 20v8h-19.9v13.3h23.3v8.2h-33.7v-49.5h33.6v8.3h-23.2v11.7zm35.5 16.5q0-2.9-2-4.4-2.1-1.6-7.5-3.3-5.4-1.7-8.5-3.4-8.5-4.5-8.5-12.3 0-4 2.2-7.1 2.3-3.1 6.6-4.9 4.3-1.8 9.7-1.8 5.4 0 9.6 2 4.2 1.9 6.5 5.4 2.3 3.5 2.3 7.9h-10.3q0-3.4-2.2-5.3-2.2-1.9-6.1-1.9-3.8 0-5.9 1.6-2.1 1.6-2.1 4.2 0 2.4 2.5 4 2.4 1.7 7.2 3.1 8.9 2.6 12.9 6.5 4 3.8 4 9.6 0 6.4-4.9 10.1-4.9 3.6-13.3 3.6-5.8 0-10.5-2-4.8-2.1-7.3-5.8-2.5-3.6-2.5-8.4h10.4q0 8.2 9.9 8.2 3.7 0 5.8-1.5 2-1.5 2-4.1zm43.5 0q0-2.9-2.1-4.4-2.1-1.6-7.5-3.3-5.3-1.7-8.5-3.4-8.5-4.5-8.5-12.3 0-4 2.3-7.1 2.3-3.1 6.5-4.9 4.3-1.8 9.7-1.8 5.4 0 9.6 2 4.2 1.9 6.5 5.4 2.3 3.5 2.3 7.9h-10.3q0-3.4-2.2-5.3-2.1-1.9-6.1-1.9-3.8 0-5.9 1.6-2.1 1.6-2.1 4.2 0 2.4 2.5 4 2.5 1.7 7.2 3.1 8.9 2.6 12.9 6.5 4 3.8 4 9.6 0 6.4-4.9 10.1-4.9 3.6-13.3 3.6-5.8 0-10.5-2-4.8-2.1-7.3-5.8-2.5-3.6-2.5-8.4h10.4q0 8.2 9.9 8.2 3.7 0 5.8-1.5 2.1-1.5 2.1-4.1zm49.2 13l-3.5-10.2h-18.2l-3.4 10.2h-11l18.7-49.5h9.6l18.8 49.5zm-12.6-37l-6.3 18.5h12.6zm54.3 24q0-2.9-2.1-4.4-2-1.6-7.4-3.3-5.4-1.7-8.5-3.4-8.6-4.5-8.6-12.2 0-4.1 2.3-7.2 2.3-3.1 6.6-4.9 4.3-1.8 9.6-1.8 5.4 0 9.6 2 4.2 1.9 6.5 5.4 2.4 3.5 2.4 7.9h-10.4q0-3.4-2.1-5.2-2.2-2-6.1-2-3.8 0-5.9 1.6-2.1 1.6-2.1 4.2 0 2.4 2.4 4 2.5 1.7 7.3 3.1 8.8 2.6 12.9 6.5 4 3.8 4 9.6 0 6.4-4.9 10.1-5 3.6-13.3 3.6-5.8 0-10.6-2-4.7-2.1-7.2-5.8-2.5-3.6-2.5-8.4h10.3q0 8.2 10 8.2 3.7 0 5.7-1.5 2.1-1.5 2.1-4.1z"/>
</svg>